<svg xmlns="http://www.w3.org/2000/svg" version="1.1" xmlns:xlink="http://www.w3.org/1999/xlink" xmlns:svgjs="http://svgjs.dev/svgjs" width="1440" height="250" preserveAspectRatio="none" viewBox="0 0 1440 250"><g mask="url(&quot;#SvgjsMask1015&quot;)" fill="none"><rect width="1440" height="250" x="0" y="0" fill="rgba(20, 21, 23, 1)"></rect><path d="M21 250L271 0L404.5 0L154.5 250z" fill="url(&quot;#SvgjsLinearGradient1016&quot;)"></path><path d="M256.6 250L506.6 0L667.1 0L417.1 250z" fill="url(&quot;#SvgjsLinearGradient1016&quot;)"></path><path d="M495.20000000000005 250L745.2 0L1043.7 0L793.7 250z" fill="url(&quot;#SvgjsLinearGradient1016&quot;)"></path><path d="M730.8000000000001 250L980.8000000000001 0L1085.8000000000002 0L835.8000000000001 250z" fill="url(&quot;#SvgjsLinearGradient1016&quot;)"></path><path d="M1399 250L1149 0L933 0L1183 250z" fill="url(&quot;#SvgjsLinearGradient1017&quot;)"></path><path d="M1182.4 250L932.4000000000001 0L726.9000000000001 0L976.9000000000001 250z" fill="url(&quot;#SvgjsLinearGradient1017&quot;)"></path><path d="M942.8 250L692.8 0L647.8 0L897.8 250z" fill="url(&quot;#SvgjsLinearGradient1017&quot;)"></path><path d="M712.1999999999999 250L462.19999999999993 0L222.19999999999993 0L472.19999999999993 250z" fill="url(&quot;#SvgjsLinearGradient1017&quot;)"></path><path d="M1209.9251886635416 250L1440 19.925188663541633L1440 250z" fill="url(&quot;#SvgjsLinearGradient1016&quot;)"></path><path d="M0 250L230.07481133645837 250L 0 19.925188663541633z" fill="url(&quot;#SvgjsLinearGradient1017&quot;)"></path></g><defs><mask id="SvgjsMask1015"><rect width="1440" height="250" fill="#ffffff"></rect></mask><linearGradient x1="0%" y1="100%" x2="100%" y2="0%" id="SvgjsLinearGradient1016"><stop stop-color="rgba(105, 219, 124, 0.63)" offset="0"></stop><stop stop-opacity="0" stop-color="rgba(105, 219, 124, 0.63)" offset="0.66"></stop></linearGradient><linearGradient x1="100%" y1="100%" x2="0%" y2="0%" id="SvgjsLinearGradient1017"><stop stop-color="rgba(105, 219, 124, 0.63)" offset="0"></stop><stop stop-opacity="0" stop-color="rgba(105, 219, 124, 0.63)" offset="0.66"></stop></linearGradient></defs></svg>