<svg xmlns="http://www.w3.org/2000/svg" version="1.1" xmlns:xlink="http://www.w3.org/1999/xlink" xmlns:svgjs="http://svgjs.dev/svgjs" width="1440" height="560" preserveAspectRatio="none" viewBox="0 0 1440 560">
    <g mask="url(&quot;#SvgjsMask1611&quot;)" fill="none">
        <rect width="1440" height="560" x="0" y="0" fill="rgba(16, 21, 23, 1)"></rect>
        <path d="M40.05 -12.98L79.89 10.02L79.89 56.02L40.05 79.02L0.21 56.02L0.21 10.02zM79.89 194.02L119.73 217.02L119.73 263.02L79.89 286.02L40.05 263.02L40.05 217.02zM159.56 332.02L199.4 355.02L199.4 401.02L159.56 424.02L119.73 401.02L119.73 355.02zM239.24 56.02L279.08 79.02L279.08 125.02L239.24 148.02L199.4 125.02L199.4 79.02zM199.4 125.02L239.24 148.02L239.24 194.02L199.4 217.02L159.56 194.02L159.56 148.02zM239.24 194.02L279.08 217.02L279.08 263.02L239.24 286.02L199.4 263.02L199.4 217.02zM279.08 263.02L318.92 286.02L318.92 332.02L279.08 355.02L239.24 332.02L239.24 286.02zM358.76 263.02L398.59 286.02L398.59 332.02L358.76 355.02L318.92 332.02L318.92 286.02zM398.59 332.02L438.43 355.02L438.43 401.02L398.59 424.02L358.76 401.02L358.76 355.02zM398.59 470.02L438.43 493.02L438.43 539.02L398.59 562.02L358.76 539.02L358.76 493.02zM358.76 539.02L398.59 562.02L398.59 608.02L358.76 631.02L318.92 608.02L318.92 562.02zM438.43 263.02L478.27 286.02L478.27 332.02L438.43 355.02L398.59 332.02L398.59 286.02zM557.95 332.02L597.79 355.02L597.79 401.02L557.95 424.02L518.11 401.02L518.11 355.02zM518.11 539.02L557.95 562.02L557.95 608.02L518.11 631.02L478.27 608.02L478.27 562.02zM597.79 263.02L637.62 286.02L637.62 332.02L597.79 355.02L557.95 332.02L557.95 286.02zM637.62 332.02L677.46 355.02L677.46 401.02L637.62 424.02L597.79 401.02L597.79 355.02zM717.3 56.02L757.14 79.02L757.14 125.02L717.3 148.02L677.46 125.02L677.46 79.02zM717.3 332.02L757.14 355.02L757.14 401.02L717.3 424.02L677.46 401.02L677.46 355.02zM717.3 470.02L757.14 493.02L757.14 539.02L717.3 562.02L677.46 539.02L677.46 493.02zM836.82 401.02L876.65 424.02L876.65 470.02L836.82 493.02L796.98 470.02L796.98 424.02zM916.49 263.02L956.33 286.02L956.33 332.02L916.49 355.02L876.65 332.02L876.65 286.02zM956.33 332.02L996.17 355.02L996.17 401.02L956.33 424.02L916.49 401.02L916.49 355.02zM996.17 401.02L1036.01 424.02L1036.01 470.02L996.17 493.02L956.33 470.02L956.33 424.02zM1036.01 470.02L1075.85 493.02L1075.85 539.02L1036.01 562.02L996.17 539.02L996.17 493.02zM1115.68 332.02L1155.52 355.02L1155.52 401.02L1115.68 424.02L1075.85 401.02L1075.85 355.02zM1235.2 125.02L1275.04 148.02L1275.04 194.02L1235.2 217.02L1195.36 194.02L1195.36 148.02zM1314.88 125.02L1354.71 148.02L1354.71 194.02L1314.88 217.02L1275.04 194.02L1275.04 148.02zM1394.55 -12.98L1434.39 10.02L1434.39 56.02L1394.55 79.02L1354.71 56.02L1354.71 10.02zM1434.39 332.02L1474.23 355.02L1474.23 401.02L1434.39 424.02L1394.55 401.02L1394.55 355.02zM1394.55 401.02L1434.39 424.02L1434.39 470.02L1394.55 493.02L1354.71 470.02L1354.71 424.02zM1514.07 56.02L1553.91 79.02L1553.91 125.02L1514.07 148.02L1474.23 125.02L1474.23 79.02zM1474.23 539.02L1514.07 562.02L1514.07 608.02L1474.23 631.02L1434.39 608.02L1434.39 562.02z" stroke="rgba(105, 219, 124, 0.05)" stroke-width="2"></path>
        <path d="M0.84 -22.75L25.96 -8.25L25.96 20.75L0.84 35.25L-24.28 20.75L-24.28 -8.25zM0.84 151.25L25.96 165.75L25.96 194.75L0.84 209.25L-24.28 194.75L-24.28 165.75zM0.84 412.25L25.96 426.75L25.96 455.75L0.84 470.25L-24.28 455.75L-24.28 426.75zM126.42 107.75L151.53 122.25L151.53 151.25L126.42 165.75L101.3 151.25L101.3 122.25zM101.3 412.25L126.42 426.75L126.42 455.75L101.3 470.25L76.19 455.75L76.19 426.75zM176.65 281.75L201.76 296.25L201.76 325.25L176.65 339.75L151.53 325.25L151.53 296.25zM201.76 412.25L226.88 426.75L226.88 455.75L201.76 470.25L176.65 455.75L176.65 426.75zM277.11 281.75L302.23 296.25L302.23 325.25L277.11 339.75L251.99 325.25L251.99 296.25zM251.99 499.25L277.11 513.75L277.11 542.75L251.99 557.25L226.88 542.75L226.88 513.75zM302.23 238.25L327.34 252.75L327.34 281.75L302.23 296.25L277.11 281.75L277.11 252.75zM352.46 -22.75L377.57 -8.25L377.57 20.75L352.46 35.25L327.34 20.75L327.34 -8.25zM352.46 499.25L377.57 513.75L377.57 542.75L352.46 557.25L327.34 542.75L327.34 513.75zM402.69 -22.75L427.8 -8.25L427.8 20.75L402.69 35.25L377.57 20.75L377.57 -8.25zM402.69 64.25L427.8 78.75L427.8 107.75L402.69 122.25L377.57 107.75L377.57 78.75zM427.8 107.75L452.92 122.25L452.92 151.25L427.8 165.75L402.69 151.25L402.69 122.25zM452.92 412.25L478.03 426.75L478.03 455.75L452.92 470.25L427.8 455.75L427.8 426.75zM553.38 64.25L578.5 78.75L578.5 107.75L553.38 122.25L528.26 107.75L528.26 78.75zM578.5 107.75L603.61 122.25L603.61 151.25L578.5 165.75L553.38 151.25L553.38 122.25zM578.5 194.75L603.61 209.25L603.61 238.25L578.5 252.75L553.38 238.25L553.38 209.25zM553.38 325.25L578.5 339.75L578.5 368.75L553.38 383.25L528.26 368.75L528.26 339.75zM578.5 455.75L603.61 470.25L603.61 499.25L578.5 513.75L553.38 499.25L553.38 470.25zM603.61 64.25L628.73 78.75L628.73 107.75L603.61 122.25L578.5 107.75L578.5 78.75zM628.73 107.75L653.84 122.25L653.84 151.25L628.73 165.75L603.61 151.25L603.61 122.25zM628.73 281.75L653.84 296.25L653.84 325.25L628.73 339.75L603.61 325.25L603.61 296.25zM678.96 107.75L704.07 122.25L704.07 151.25L678.96 165.75L653.84 151.25L653.84 122.25zM678.96 281.75L704.07 296.25L704.07 325.25L678.96 339.75L653.84 325.25L653.84 296.25zM704.07 151.25L729.19 165.75L729.19 194.75L704.07 209.25L678.96 194.75L678.96 165.75zM754.3 238.25L779.42 252.75L779.42 281.75L754.3 296.25L729.19 281.75L729.19 252.75zM779.42 281.75L804.53 296.25L804.53 325.25L779.42 339.75L754.3 325.25L754.3 296.25zM804.53 412.25L829.65 426.75L829.65 455.75L804.53 470.25L779.42 455.75L779.42 426.75zM879.88 107.75L905 122.25L905 151.25L879.88 165.75L854.77 151.25L854.77 122.25zM930.11 107.75L955.23 122.25L955.23 151.25L930.11 165.75L905 151.25L905 122.25zM930.11 455.75L955.23 470.25L955.23 499.25L930.11 513.75L905 499.25L905 470.25zM1055.69 499.25L1080.8 513.75L1080.8 542.75L1055.69 557.25L1030.57 542.75L1030.57 513.75zM1131.04 107.75L1156.15 122.25L1156.15 151.25L1131.04 165.75L1105.92 151.25L1105.92 122.25zM1181.27 368.75L1206.38 383.25L1206.38 412.25L1181.27 426.75L1156.15 412.25L1156.15 383.25zM1256.61 238.25L1281.73 252.75L1281.73 281.75L1256.61 296.25L1231.5 281.75L1231.5 252.75zM1281.73 368.75L1306.84 383.25L1306.84 412.25L1281.73 426.75L1256.61 412.25L1256.61 383.25zM1306.84 325.25L1331.96 339.75L1331.96 368.75L1306.84 383.25L1281.73 368.75L1281.73 339.75zM1382.19 194.75L1407.31 209.25L1407.31 238.25L1382.19 252.75L1357.07 238.25L1357.07 209.25zM1382.19 455.75L1407.31 470.25L1407.31 499.25L1382.19 513.75L1357.07 499.25L1357.07 470.25zM1432.42 281.75L1457.54 296.25L1457.54 325.25L1432.42 339.75L1407.31 325.25L1407.31 296.25zM1407.31 325.25L1432.42 339.75L1432.42 368.75L1407.31 383.25L1382.19 368.75L1382.19 339.75z" stroke="rgba(105, 219, 124, 0.05)" stroke-width="2"></path>
    </g>
    <defs>
        <mask id="SvgjsMask1611">
            <rect width="1440" height="560" fill="#ffffff"></rect>
        </mask>
    </defs>
</svg>